<?xml version="1.0" encoding="utf-8"?>
<!-- Generator: Adobe Illustrator 16.0.0, SVG Export Plug-In . SVG Version: 6.00 Build 0)  -->
<!DOCTYPE svg PUBLIC "-//W3C//DTD SVG 1.1//EN" "http://www.w3.org/Graphics/SVG/1.1/DTD/svg11.dtd">
<svg version="1.1" id="Layer_1" xmlns="http://www.w3.org/2000/svg" xmlns:xlink="http://www.w3.org/1999/xlink" x="0px" y="0px"
	 width="128px" height="128px" viewBox="0 0 128 128" enable-background="new 0 0 128 128" xml:space="preserve">
<g>
	<g>
		<polygon fill="#282D33" points="126.059,128 43.002,128 43.002,115.641 47.002,115.641 47.002,124 122.059,124 122.059,28.124 
			126.059,28.124 		"/>
	</g>
	<g>
		<polygon fill="#282D33" points="43.003,28.015 43.002,0.901 98.646,0.901 98.646,4.901 47.002,4.901 47.003,28.015 		"/>
	</g>
	<g>
		<g>
			<path fill="#282D33" d="M106.971,9.457l10.454,10.378h-10.454V9.457 M103.032,0v23.772h23.948L103.032,0L103.032,0z"/>
		</g>
	</g>
	<g>
		<g>
			<polygon fill="#282D33" points="113.104,116.029 1.02,116.029 1.02,39.356 15.718,39.356 15.718,43.356 5.02,43.356 
				5.02,112.029 109.104,112.029 109.104,43.356 41.667,43.356 41.667,39.356 113.104,39.356 			"/>
		</g>
		<g>
			<path fill="#282D33" d="M97.732,54.653v35.212H73.863l-1.75-2.313L58.774,69.92l-3.141-4.15l-3.14,4.15l-7.343,9.704
				L32.089,62.361l-3.139-4.149L25.81,62.36l-9.426,12.451V54.653H97.732 M101.671,50.715H12.446v35.819l16.502-21.798L45.151,86.15
				l10.481-13.854L68.975,89.93l2.933,3.873h29.764V50.715L101.671,50.715z"/>
		</g>
		<g>
			<path fill="#282D33" d="M80.691,79.594c-5.31,0-9.629-4.293-9.629-9.57s4.319-9.571,9.629-9.571s9.629,4.294,9.629,9.571
				S86.001,79.594,80.691,79.594z M80.691,64.452c-3.104,0-5.629,2.499-5.629,5.571c0,3.071,2.525,5.57,5.629,5.57
				s5.629-2.499,5.629-5.57C86.32,66.951,83.795,64.452,80.691,64.452z"/>
		</g>
	</g>
	<g>
		<g>
			<path fill="#282D33" d="M14.918,28.015h-4V13.417c0-6.901,5.65-12.516,12.596-12.516c0.003,0,0.007,0,0.011,0
				c3.374,0,6.543,1.31,8.923,3.688c2.363,2.361,3.664,5.497,3.664,8.828l0.003,14.591l-4,0.001l-0.003-14.592
				c0-2.263-0.885-4.393-2.491-5.999c-1.625-1.624-3.79-2.518-6.098-2.518c-0.002,0-0.005,0-0.008,0c-4.74,0-8.597,3.82-8.597,8.516
				V28.015z"/>
		</g>
		<g>
			<path fill="#282D33" d="M28.474,47.898c-0.006,0-0.011,0-0.017,0c-4.214,0-7.648-3.414-7.65-7.609l0.002-21.585h4l-0.002,21.584
				c0.001,1.99,1.641,3.611,3.654,3.611c0.003,0,0.006,0,0.009,0c0.979,0,1.895-0.378,2.583-1.066
				c0.685-0.683,1.062-1.586,1.062-2.544l-0.003-16.258l4-0.001l0.003,16.258c0,2.029-0.794,3.938-2.235,5.376
				C32.434,47.104,30.515,47.898,28.474,47.898z"/>
		</g>
	</g>
</g>
</svg>
